<svg width="1920" height="435" viewBox="0 0 1920 435" fill="none" xmlns="http://www.w3.org/2000/svg">
<path d="M899.298 142.08C868.588 159.989 576.01 246.423 433.56 287.402L0 435H1923V0C1923 0 1832.52 142.08 1826.26 142.08C1797.7 142.08 1777.54 103.378 1760.77 103.378C1744.01 103.378 1729.75 134.78 1705.45 142.08C1650.35 158.628 1592.59 17.8279 1573.91 68.0911C1555.24 118.354 1435.49 188.067 1362.78 224.796C1290.07 261.525 1244.79 267.165 1231.24 265.395C1140.73 233.396 947.622 163.935 899.298 142.08Z" fill="url(#paint0_linear_424_12)"/>
<defs>
<linearGradient id="paint0_linear_424_12" x1="961.5" y1="0" x2="961.5" y2="435" gradientUnits="userSpaceOnUse">
<stop stop-color="#BA9F8E"/>
<stop offset="1" stop-color="#866B59"/>
</linearGradient>
</defs>
</svg>
