<svg width="1920" height="254" viewBox="0 0 1920 254" fill="none" xmlns="http://www.w3.org/2000/svg">
<path d="M608.499 66.3657C569.316 77.2173 562.401 106.546 375.126 43.0321C231.645 131.901 183.241 98.8859 0 162.4V254H1920C1832.22 220.381 1635.92 154.995 1552.94 162.4C1449.22 171.655 1382.38 98.8859 1259.06 43.0321C1242.35 66.3311 1138.63 98.8859 1097.14 98.8859C1055.65 98.8859 835.534 1.99998 800.384 2C769.753 2.00002 647.683 55.5141 608.499 66.3657Z" fill="url(#paint0_radial_424_5)"/>
<path d="M309.716 157.625C250.234 190.15 144 173.5 93 134.536C118.5 126 269 110.5 375 42.5C389.5 49 501.5 87 552 82.5C688 46.6918 764.473 1.52372 801.937 0.017922C839.401 -1.48788 1042.86 92.3735 1100.5 100.404C1143.6 106.411 1215.25 71.3574 1251.88 49.5412C1254.35 48.043 1256.73 46.5913 1259 45.1918C1256.81 46.5651 1254.43 48.021 1251.88 49.5412C1188.14 88.1628 1061.32 157.625 1011.16 157.625C946.03 157.625 897.358 35.6551 789 45.1918C702.314 52.8212 564 152.5 552 82.5C495 89.5 369.197 125.099 309.716 157.625Z" fill="#F4E0D5"/>
<defs>
<radialGradient id="paint0_radial_424_5" cx="0" cy="0" r="1" gradientUnits="userSpaceOnUse" gradientTransform="translate(960 128) rotate(90) scale(126 960)">
<stop offset="0.119792" stop-color="#EDD7CB"/>
<stop offset="1" stop-color="#D3AC97"/>
</radialGradient>
</defs>
</svg>
