<svg width="1920" height="321" viewBox="0 0 1920 321" fill="none" xmlns="http://www.w3.org/2000/svg">
<path d="M414.145 42.8168C368.441 55.5809 347.652 107.388 227.52 134.418L-1 321H1236H1920C1920 321 1343.79 8.27884 1324.89 8.27884C1306 8.27884 1178 53.4734 1149.22 49.5743C1120.44 45.6751 1093.99 24.0462 1093.99 24.0462C1093.99 24.0462 1069.42 45.1477 1047 49.5743C1000.92 58.6721 952 2.50439 946.5 0.770582C941 -0.963227 936.41 0.770582 936.41 0.770582C923.5 13.9465 819.674 79.9077 758.354 104.134C697.035 128.361 658.853 132.082 647.427 130.914C571.095 109.807 476.513 55.0803 414.145 42.8168Z" fill="url(#paint0_linear_424_13)"/>
<defs>
<linearGradient id="paint0_linear_424_13" x1="959.5" y1="0.770741" x2="959.5" y2="242.787" gradientUnits="userSpaceOnUse">
<stop stop-color="#E1BDAA"/>
<stop offset="1" stop-color="#AD8772"/>
</linearGradient>
</defs>
</svg>
