<?xml version="1.0" standalone="no"?>
<!DOCTYPE svg PUBLIC "-//W3C//DTD SVG 20010904//EN"
 "http://www.w3.org/TR/2001/REC-SVG-20010904/DTD/svg10.dtd">
<svg version="1.0" xmlns="http://www.w3.org/2000/svg"
 width="677.000000pt" height="677.000000pt" viewBox="0 0 677.000000 677.000000"
 preserveAspectRatio="xMidYMid meet">
<metadata>
Created by potrace 1.14, written by Peter Selinger 2001-2017
</metadata>
<g transform="translate(0.000000,677.000000) scale(0.100000,-0.100000)"
fill="#000000" stroke="none">
<path d="M998 6765 c-2 -3 -22 -7 -44 -9 -97 -10 -230 -52 -339 -107 -44 -22
-87 -47 -96 -55 -8 -8 -21 -14 -27 -14 -7 0 -12 -4 -12 -9 0 -5 -9 -12 -19
-16 -30 -9 -202 -183 -253 -255 -26 -36 -61 -94 -80 -130 -36 -68 -91 -210
-82 -210 2 0 0 -8 -5 -19 -6 -10 -13 -31 -15 -47 -3 -16 -9 -47 -13 -69 -10
-51 -11 -4816 -1 -4870 6 -32 37 -150 52 -200 11 -37 66 -157 75 -165 6 -5 25
-37 45 -75 17 -33 111 -146 158 -191 73 -69 155 -130 208 -156 14 -7 27 -15
30 -18 7 -9 93 -48 153 -70 67 -25 158 -49 222 -58 62 -9 4771 -9 4840 -1 89
12 224 49 283 78 9 4 40 19 67 32 28 13 52 27 53 32 2 4 8 7 14 7 34 0 222
163 309 267 40 49 115 173 135 223 9 25 20 50 24 55 7 10 27 66 35 101 24 99
36 167 41 223 5 65 5 82 1 131 -1 14 1 37 5 53 3 15 3 27 -2 27 -4 0 -5 15 -1
33 5 18 6 41 4 52 -2 11 -3 30 -3 43 0 12 0 29 0 37 0 8 0 26 0 40 0 14 0 32
0 40 0 8 0 26 0 40 0 14 0 33 0 43 0 9 0 33 1 52 1 52 1 52 -3 93 -3 20 -1 37
2 37 4 0 4 18 0 39 -4 21 -3 46 2 55 6 10 5 16 -1 16 -7 0 -7 8 -2 23 5 13 6
30 1 37 -4 7 -4 25 0 41 5 15 6 30 3 32 -8 9 -9 70 -2 100 4 15 4 27 -1 27 -4
0 -5 15 -1 33 5 18 6 41 4 52 -2 11 -3 54 -3 95 0 41 1 81 1 88 0 6 -1 23 -1
37 0 14 0 32 0 40 0 8 0 26 0 40 0 14 0 31 1 38 0 6 -2 29 -3 50 -2 20 0 37 3
37 3 0 3 18 -1 39 -4 21 -3 46 2 55 6 10 5 16 -1 16 -7 0 -7 8 -2 23 5 12 5
31 1 42 -4 11 -4 29 0 39 3 11 3 38 0 62 -4 23 -3 50 2 58 6 10 5 16 -1 16 -7
0 -7 8 -1 24 5 13 6 26 4 29 -9 9 -10 70 -3 100 4 15 4 27 -1 27 -4 0 -5 15
-1 33 5 18 6 41 4 52 -2 11 -4 25 -4 30 0 6 0 24 0 40 1 17 1 38 1 48 0 9 0
28 0 42 0 14 0 32 0 40 0 8 0 26 0 40 0 14 -1 31 -1 38 0 6 0 28 1 47 0 19 -1
50 -3 68 -2 17 0 32 4 32 3 0 3 18 -1 39 -4 21 -3 46 2 55 6 10 5 16 -1 16 -7
0 -7 8 -2 23 5 13 6 30 1 37 -4 7 -4 25 0 41 5 15 6 30 3 32 -8 9 -9 70 -2
100 4 15 4 27 -1 27 -4 0 -5 15 -1 33 5 18 6 41 4 52 -5 24 -5 28 -3 80 0 22
-1 55 -3 73 -2 17 0 32 4 32 3 0 3 18 -1 39 -4 21 -3 46 2 55 6 10 5 16 -1 16
-7 0 -7 8 -2 23 5 13 6 30 1 37 -4 7 -4 25 0 41 5 15 6 30 3 32 -8 9 -9 70 -2
100 4 15 4 27 -1 27 -4 0 -5 15 -1 33 5 18 6 41 4 52 -2 11 -4 25 -4 30 0 6 0
24 0 40 1 17 1 38 1 48 0 9 0 28 0 42 0 14 0 32 0 40 0 8 0 26 0 40 0 14 0 32
0 40 0 8 0 25 0 38 0 12 -1 41 -2 65 -2 23 0 42 3 42 4 0 3 18 -1 39 -4 21 -3
46 2 55 6 10 5 16 -1 16 -7 0 -7 8 -1 24 5 13 7 26 4 29 -8 7 -11 77 -4 77 4
0 4 18 0 39 -4 22 -3 45 1 52 4 8 3 19 -2 25 -6 7 -6 15 -1 18 5 3 6 23 2 45
-4 22 -4 45 1 52 4 7 6 16 4 19 -2 3 -6 36 -9 73 -17 213 -81 390 -204 560
-123 171 -324 322 -508 382 -27 9 -58 20 -69 25 -11 4 -38 11 -60 15 -22 4
-51 9 -65 13 -29 7 -4844 14 -4852 7z"/>
</g>
</svg>
